<svg width="21" height="21" viewBox="0 0 21 21" fill="none" xmlns="http://www.w3.org/2000/svg">
<g id="announcement-02">
<path id="Icon" d="M3.98845 11.9329L5.30065 17.1818C5.33755 17.3294 5.35601 17.4032 5.37784 17.4676C5.59108 18.0972 6.15804 18.5399 6.82054 18.5941C6.88836 18.5996 6.96444 18.5996 7.1166 18.5996C7.30714 18.5996 7.40241 18.5996 7.48267 18.5918C8.27594 18.5149 8.90372 17.8871 8.98066 17.0938C8.98845 17.0136 8.98845 16.9183 8.98845 16.7278V4.84962M16.0718 11.5163C17.6826 11.5163 18.9884 10.2104 18.9884 8.59962C18.9884 6.98879 17.6826 5.68295 16.0718 5.68295M9.19677 4.84962H6.07178C4.00071 4.84962 2.32178 6.52855 2.32178 8.59962C2.32178 10.6707 4.00071 12.3496 6.07178 12.3496H9.19678C10.6688 12.3496 12.4695 13.1387 13.8587 13.896C14.6691 14.3378 15.0744 14.5587 15.3398 14.5262C15.5859 14.496 15.7719 14.3855 15.9162 14.1839C16.0718 13.9664 16.0718 13.5313 16.0718 12.661V4.53819C16.0718 3.66795 16.0718 3.23283 15.9162 3.01536C15.7719 2.8137 15.5859 2.7032 15.3398 2.67306C15.0744 2.64055 14.6691 2.86145 13.8587 3.30325C12.4695 4.06054 10.6688 4.84962 9.19677 4.84962Z" stroke="#003551" stroke-width="2" stroke-linecap="round" stroke-linejoin="round"/>
</g>
</svg>
