<svg width="20" height="20" viewBox="0 0 20 20" fill="none" xmlns="http://www.w3.org/2000/svg">
<g id="globe-05" clip-path="url(#clip0_411_4832)">
<path id="Icon" d="M12.4998 2.04752C11.7106 1.79964 10.8708 1.66602 9.99984 1.66602C5.39746 1.66602 1.6665 5.39698 1.6665 9.99935C1.6665 14.6017 5.39746 18.3327 9.99984 18.3327C14.6022 18.3327 18.3332 14.6017 18.3332 9.99935C18.3332 8.56991 17.9733 7.22453 17.3391 6.04889M14.1665 4.79102H14.1707M8.74988 18.2396L8.74997 16.4035C8.74998 16.304 8.78555 16.2078 8.85028 16.1323L10.9218 13.7155C11.092 13.5169 11.0393 13.2124 10.8121 13.0826L8.43195 11.7225C8.36728 11.6855 8.3137 11.6319 8.27678 11.5672L6.72522 8.84821C6.64447 8.7067 6.48865 8.62524 6.32636 8.63969L1.71999 9.04997M17.4998 4.99935C17.4998 6.8403 15.8332 8.33268 14.1665 9.99935C12.4998 8.33268 10.8332 6.8403 10.8332 4.99935C10.8332 3.1584 12.3256 1.66602 14.1665 1.66602C16.0075 1.66602 17.4998 3.1584 17.4998 4.99935ZM14.3748 4.79102C14.3748 4.90607 14.2816 4.99935 14.1665 4.99935C14.0514 4.99935 13.9582 4.90607 13.9582 4.79102C13.9582 4.67596 14.0514 4.58268 14.1665 4.58268C14.2816 4.58268 14.3748 4.67596 14.3748 4.79102Z" stroke="white" stroke-width="2" stroke-linecap="round" stroke-linejoin="round"/>
</g>
<defs>
<clipPath id="clip0_411_4832">
<rect width="20" height="20" fill="white"/>
</clipPath>
</defs>
</svg>
