<svg width="28" height="28" viewBox="0 0 28 28" fill="none" xmlns="http://www.w3.org/2000/svg">
<g id="home-smile">
<path id="Icon" d="M9.48035 16.3312C9.9984 18.344 11.8255 19.8312 14 19.8312C16.1745 19.8312 18.0016 18.344 18.5196 16.3312M12.854 3.22259L4.94129 9.3769C4.41236 9.78829 4.14789 9.99399 3.95736 10.2516C3.78859 10.4798 3.66287 10.7368 3.58637 11.0102C3.5 11.3187 3.5 11.6537 3.5 12.3238V20.7646C3.5 22.0714 3.5 22.7248 3.75432 23.2239C3.97802 23.6629 4.33498 24.0199 4.77402 24.2436C5.27315 24.4979 5.92654 24.4979 7.23333 24.4979H20.7667C22.0735 24.4979 22.7269 24.4979 23.226 24.2436C23.665 24.0199 24.022 23.6629 24.2457 23.2239C24.5 22.7248 24.5 22.0714 24.5 20.7646V12.3238C24.5 11.6537 24.5 11.3187 24.4136 11.0102C24.3371 10.7368 24.2114 10.4798 24.0426 10.2516C23.8521 9.99399 23.5876 9.7883 23.0587 9.37691L15.146 3.22259C14.7361 2.9038 14.5312 2.7444 14.3049 2.68313C14.1052 2.62906 13.8948 2.62906 13.6951 2.68313C13.4688 2.7444 13.2639 2.9038 12.854 3.22259Z" stroke="#003551" stroke-width="2.5" stroke-linecap="round" stroke-linejoin="round"/>
</g>
</svg>
