<svg width="20" height="20" viewBox="0 0 20 20" fill="none" xmlns="http://www.w3.org/2000/svg">
<g id="marker-pin-04" clip-path="url(#clip0_411_4848)">
<path id="Icon" d="M4.1665 11.9046C2.6237 12.5852 1.6665 13.5337 1.6665 14.5827C1.6665 16.6537 5.39746 18.3327 9.99984 18.3327C14.6022 18.3327 18.3332 16.6537 18.3332 14.5827C18.3332 13.5337 17.376 12.5852 15.8332 11.9046M14.9998 6.66602C14.9998 10.0524 11.2498 11.666 9.99984 14.166C8.74984 11.666 4.99984 10.0524 4.99984 6.66602C4.99984 3.90459 7.23841 1.66602 9.99984 1.66602C12.7613 1.66602 14.9998 3.90459 14.9998 6.66602ZM10.8332 6.66602C10.8332 7.12625 10.4601 7.49935 9.99984 7.49935C9.5396 7.49935 9.1665 7.12625 9.1665 6.66602C9.1665 6.20578 9.5396 5.83268 9.99984 5.83268C10.4601 5.83268 10.8332 6.20578 10.8332 6.66602Z" stroke="#003551" stroke-width="2" stroke-linecap="round" stroke-linejoin="round"/>
</g>
<defs>
<clipPath id="clip0_411_4848">
<rect width="20" height="20" fill="white"/>
</clipPath>
</defs>
</svg>
